<svg width="525" height="459" viewBox="0 0 525 459" fill="none" xmlns="http://www.w3.org/2000/svg">
<path d="M510.77 325.691C460.233 439.932 395.597 470.91 213.656 444.203C106.941 428.538 0 385.317 0 275.615C0 165.913 203.64 -34.8527 318.814 5.20738C426.672 5.20738 569.791 192.273 510.77 325.691Z" fill="#81A1C1"/>
<circle cx="195.294" cy="212.186" r="13.3535" fill="#0F212B"/>
<circle cx="298.784" cy="225.54" r="13.3535" fill="#0F212B"/>
<path d="M218.663 277.284C218.663 277.284 236.994 274.676 248.708 275.615C260.69 276.576 278.754 282.292 278.754 282.292" stroke="#0F212B" stroke-width="3" stroke-linecap="round"/>
<ellipse cx="194.5" cy="236.5" rx="3.5" ry="5.5" fill="#E8FEFF"/>
<ellipse cx="298.5" cy="259.5" rx="3.5" ry="5.5" fill="#E8FEFF"/>
<ellipse cx="194" cy="251.5" rx="3" ry="4.5" fill="#E8FEFF"/>
<ellipse cx="298" cy="274.5" rx="3" ry="4.5" fill="#E8FEFF"/>
<ellipse cx="193.5" cy="267" rx="2.5" ry="4" fill="#E8FEFF"/>
<ellipse cx="297.5" cy="290" rx="2.5" ry="4" fill="#E8FEFF"/>
<ellipse cx="297" cy="303.5" rx="2" ry="3.5" fill="#E8FEFF"/>
</svg>
