<svg width="699" height="186" viewBox="0 0 699 186" fill="none" xmlns="http://www.w3.org/2000/svg">
<path d="M35.2 130C32.4 132.4 29.1333 133.8 25.4 134.2C21.8 134.6 18.2667 134.067 14.8 132.6C11.3333 131 8.46667 128.6 6.2 125.4C3.93334 122.467 2.46667 119.133 1.8 115.4C1.13333 111.533 1.06667 106.533 1.6 100.4C2 95.2 3.66667 90 6.6 84.8C9.53333 79.4667 13.0667 74.7333 17.2 70.6C21.4667 66.4667 25.6667 63.6 29.8 62C31.8 60.6667 33.4667 60.0667 34.8 60.2C36.2667 60.2 38.4667 60.3333 41.4 60.6C44.4667 61 46.7333 61.6 48.2 62.4C49.8 63.2 51.0667 64.2667 52 65.6C54 67.6 55.3333 69.6 56 71.6C56.6667 73.4667 57 75.3333 57 77.2C56.4667 80.1333 54.4667 83.7333 51 88C47.6667 92.1333 43.2667 95.5333 37.8 98.2C34.8667 99.1333 31.6667 99.5333 28.2 99.4C24.7333 99.2667 21.8667 98.4 19.6 96.8C17.0667 95.7333 15.4 95.9333 14.6 97.4C13.8 98.7333 13.0667 102.067 12.4 107.4C11.8667 112.467 12.2667 116.2 13.6 118.6C14.9333 120.867 16.7333 122.2 19 122.6C21.6667 123.133 23.7333 123.533 25.2 123.8C26.8 123.933 28.7333 123.333 31 122C33.1333 120.667 34.4667 119.933 35 119.8C35.5333 119.533 35.9333 119.267 36.2 119C36.6 118.6 37.4667 117.733 38.8 116.4C39.7333 115.467 40.4667 114.8 41 114.4C41.5333 113.867 42.1333 113.6 42.8 113.6C43.4667 113.6 44.0667 113.933 44.6 114.6C45.1333 115.133 45.6667 115.533 46.2 115.8C47.5333 115.8 47.8 116.6 47 118.2C46.3333 119.8 44.9333 121.733 42.8 124C40.6667 126.133 38.1333 128.133 35.2 130ZM35 87.6C36.4667 86.9333 38 86 39.6 84.8C41.2 83.4667 42.5333 82.0667 43.6 80.6C44.8 79 45.4 77.6667 45.4 76.6C45.4 74.7333 44.5333 73.2 42.8 72C41.0667 70.6667 38.4667 70.4667 35 71.4C33.5333 71.8 31.8667 72.8 30 74.4C28.1333 75.8667 26.3333 77.5333 24.6 79.4C23 81.2667 21.6667 82.9333 20.6 84.4C19.6667 85.8667 19.3333 86.7333 19.6 87C20 87.6667 21.1333 88.2 23 88.6C24.8667 88.8667 26.9333 88.9333 29.2 88.8C31.6 88.6667 33.5333 88.2667 35 87.6ZM73.0391 131.4C67.9724 132.067 64.1724 132.533 61.6391 132.8C59.1057 132.933 57.1724 132.733 55.8391 132.2C54.6391 131.667 53.3057 130.733 51.8391 129.4C50.6391 128.333 50.1724 127.067 50.4391 125.6C50.8391 124.133 53.1057 121.267 57.2391 117C59.7724 113.933 62.3724 111.067 65.0391 108.4C67.7057 105.6 70.1057 103.333 72.2391 101.6C73.1724 100.8 74.2391 100 75.4391 99.2C76.6391 98.2667 78.5724 96.8667 81.2391 95C83.9057 93.1333 87.8391 90.4667 93.0391 87C95.5724 85 97.5724 83.4667 99.0391 82.4C100.506 81.3333 101.706 80.4667 102.639 79.8C103.706 79 104.772 78.2 105.839 77.4C104.906 77.2667 102.839 77.0667 99.6391 76.8C96.5724 76.5333 93.7057 76.5333 91.0391 76.8C87.3057 76.8 84.9057 76.8 83.8391 76.8C82.7724 76.6667 81.7057 76.4667 80.6391 76.2H77.6391C76.9724 76.2 75.7724 75.9333 74.0391 75.4C72.3057 74.7333 70.7057 73.9333 69.2391 73C67.7724 72.0667 66.9724 71.1333 66.8391 70.2C66.8391 70.2 67.2391 70 68.0391 69.6C68.8391 69.0667 69.5057 68.5333 70.0391 68C71.1057 67.3333 71.9057 66.8 72.4391 66.4C73.1057 66 73.7057 66.0667 74.2391 66.6C74.2391 66.6 75.5057 66.6 78.0391 66.6C80.5724 66.4667 83.4391 66.3333 86.6391 66.2C94.3724 66.3333 100.039 66.6 103.639 67C107.372 67.2667 110.106 67.8 111.839 68.6C113.706 69.4 115.506 70.6 117.239 72.2C119.372 74.3333 120.239 76.4 119.839 78.4C119.439 80.4 118.506 82.2 117.039 83.8C116.506 84.3333 115.972 84.9333 115.439 85.6C115.039 86.1333 114.639 86.4 114.239 86.4C114.239 86.4 113.306 87 111.439 88.2C109.572 89.4 107.306 90.8667 104.639 92.6C102.106 94.3333 99.5724 95.9333 97.0391 97.4C94.6391 98.8667 93.1724 99.9333 92.6391 100.6C91.7057 101.133 90.5724 101.867 89.2391 102.8C87.9057 103.6 86.9724 104.267 86.4391 104.8C86.0391 105.333 85.1057 106.267 83.6391 107.6C82.3057 108.933 80.8391 110.133 79.2391 111.2C78.0391 112.267 76.5724 113.6 74.8391 115.2C73.2391 116.8 71.8391 118.2 70.6391 119.4C69.4391 120.6 68.8391 121.2 68.8391 121.2C68.8391 121.2 70.1724 121.067 72.8391 120.8C75.5057 120.4 78.8391 120.067 82.8391 119.8C86.8391 119.4 90.7724 119.333 94.6391 119.6C100.906 119.467 105.839 119.333 109.439 119.2C113.172 118.933 115.972 118.867 117.839 119C119.839 119 121.372 119.267 122.439 119.8C123.372 120.067 124.172 120.6 124.839 121.4C125.639 122.2 126.172 123.067 126.439 124C126.839 124.8 126.906 125.4 126.639 125.8C126.106 125.8 124.039 126 120.439 126.4C116.839 126.667 112.706 126.933 108.039 127.2C101.906 127.733 95.9724 128.4 90.2391 129.2C84.5057 130 78.7724 130.733 73.0391 131.4ZM124.925 185.2C121.992 185.733 119.992 185.8 118.925 185.4C117.858 185 116.392 184.333 114.525 183.4C113.058 182.333 111.925 181.533 111.125 181C110.325 180.467 109.925 179.933 109.925 179.4C109.925 179 110.058 178.533 110.325 178C110.592 177.6 111.058 177.2 111.725 176.8C112.525 176.533 113.592 176.4 114.925 176.4C115.858 176.933 117.392 177.2 119.525 177.2C121.792 177.2 123.192 176.933 123.725 176.4C123.725 176.4 124.325 176 125.525 175.2C126.858 174.533 128.592 174 130.725 173.6C134.858 171.6 138.525 169.067 141.725 166C144.925 162.933 147.992 158.933 150.925 154C152.125 152.133 153.392 149.933 154.725 147.4C156.058 145 156.992 142.6 157.525 140.2C158.592 137.533 159.792 133.933 161.125 129.4C162.592 124.867 163.858 120.4 164.925 116C165.992 111.467 166.592 108.067 166.725 105.8C167.525 98.3333 168.792 91.4667 170.525 85.2C172.392 78.8 173.992 71.6667 175.325 63.8C176.125 61.9333 176.725 60.8667 177.125 60.6C177.525 60.2 178.392 60 179.725 60C181.192 60 182.258 60.1333 182.925 60.4C183.725 60.5333 184.592 61.3333 185.525 62.8C186.858 65.3333 187.325 68.3333 186.925 71.8C186.658 75.1333 185.658 78.0667 183.925 80.6C182.592 82.4667 181.392 85.4 180.325 89.4C179.392 93.2667 178.458 98.1333 177.525 104C176.858 106.933 176.125 110.4 175.325 114.4C174.658 118.267 173.925 122.6 173.125 127.4C172.592 128.733 171.858 130.8 170.925 133.6C169.992 136.267 169.392 138.4 169.125 140C168.992 140.533 168.592 141.6 167.925 143.2C167.258 144.8 166.592 146.333 165.925 147.8C165.258 149.4 164.792 150.467 164.525 151C159.325 161.8 153.392 170.067 146.725 175.8C140.058 181.533 132.792 184.667 124.925 185.2ZM140.125 127.2C138.658 127.2 137.125 126.4 135.525 124.8C134.058 123.2 133.058 121.933 132.525 121C131.992 119.667 131.325 118.4 130.525 117.2C129.725 116 129.125 114.533 128.725 112.8C128.458 111.067 128.592 108.933 129.125 106.4C129.658 104.667 130.392 102.2 131.325 99C132.392 95.6667 133.525 92.0667 134.725 88.2C136.058 84.3333 137.392 80.5333 138.725 76.8C140.192 72.9333 141.525 69.5333 142.725 66.6C143.925 63.5333 144.992 61.3333 145.925 60C146.725 58.9333 147.592 58.2667 148.525 58C149.592 57.7333 150.658 57.8667 151.725 58.4C152.792 58.8 153.725 59.6667 154.525 61C155.992 62.8667 156.592 64.4667 156.325 65.8C156.058 67.1333 154.858 69.7333 152.725 73.6C152.192 75.0667 151.525 76.6667 150.725 78.4C149.925 80 149.525 81.0667 149.525 81.6C149.392 81.8667 149.125 82.8 148.725 84.4C148.458 85.8667 148.125 87.2667 147.725 88.6C147.325 89.9333 146.925 90.6 146.525 90.6C145.992 91.1333 145.392 92.6667 144.725 95.2C144.058 97.6 143.458 100.333 142.925 103.4C142.392 106.333 142.058 108.933 141.925 111.2C141.792 113.333 141.992 114.4 142.525 114.4C146.658 114.4 150.925 112.8 155.325 109.6C159.858 106.4 164.392 101.733 168.925 95.6L172.325 109.8C170.458 110.733 168.725 111.733 167.125 112.8C165.525 113.733 164.058 114.867 162.725 116.2C162.325 116.733 161.392 117.467 159.925 118.4C158.458 119.333 156.992 120.2 155.525 121C154.192 121.667 153.325 122 152.925 122C152.925 122 152.725 122.067 152.325 122.2C152.058 122.2 151.925 122.467 151.925 123C151.925 123.267 151.058 123.8 149.325 124.6C147.592 125.267 145.792 125.867 143.925 126.4C142.058 126.933 140.792 127.2 140.125 127.2Z" fill="#A3BE8C"/>
<path d="M219.089 148.2C217.089 147.4 215.022 146.533 212.889 145.6C210.889 144.667 208.956 143.267 207.089 141.4C205.356 139.667 203.822 137.2 202.489 134C201.156 130.133 200.222 126.333 199.689 122.6C199.289 118.867 199.156 114.533 199.289 109.6C199.289 102.667 199.756 96.6667 200.689 91.6C201.756 86.4 203.356 81.1333 205.489 75.8C205.756 75.4 206.222 74.2667 206.889 72.4C207.689 70.4 208.556 68.2667 209.489 66C210.556 63.7333 211.356 62 211.889 60.8C212.956 58.5333 214.556 55.5333 216.689 51.8C218.956 47.9333 221.356 44.2 223.889 40.6C227.756 34.8667 230.956 30.3333 233.489 27C236.022 23.6667 238.422 20.8667 240.689 18.6C242.956 16.3333 245.489 14.2 248.289 12.2C251.222 10.0667 254.956 7.46666 259.489 4.39999C262.422 2.26666 265.622 1.13333 269.089 0.999999C272.689 0.866659 276.022 1.66666 279.089 3.39999C282.156 4.99999 284.422 7.4 285.889 10.6C287.356 13.4 288.089 16.8 288.089 20.8C288.089 24.6667 287.489 28.8 286.289 33.2C285.089 37.4667 283.422 41.5333 281.289 45.4C279.156 49.2667 276.689 52.4667 273.889 55C272.156 56.6 270.556 57.2 269.089 56.8C267.756 56.4 266.156 55.3333 264.289 53.6C263.089 51.3333 262.422 50 262.289 49.6C262.289 49.2 262.556 48.9333 263.089 48.8C263.889 47.8667 264.956 46.2667 266.289 44C267.622 41.7333 268.956 39.3333 270.289 36.8C271.622 34.1333 272.556 32 273.089 30.4C274.156 24.8 274.889 20.8667 275.289 18.6C275.689 16.2 275.289 14.4 274.089 13.2C273.556 12.6667 272.756 12.4667 271.689 12.6C270.756 12.7333 269.156 13.4 266.889 14.6C263.822 15.9333 259.822 18.9333 254.889 23.6C249.956 28.1333 245.422 33.2 241.289 38.8C235.956 45.8667 231.489 52.1333 227.889 57.6C224.289 63.0667 221.556 68.6667 219.689 74.4C219.422 74.9333 218.956 75.9333 218.289 77.4C217.756 78.8667 217.489 79.6 217.489 79.6C217.622 80.1333 217.422 81.4667 216.889 83.6C216.356 85.6 215.756 87.3333 215.089 88.8C213.622 94.9333 212.756 101.333 212.489 108C212.222 114.533 212.556 120.333 213.489 125.4C214.556 130.467 216.089 134 218.089 136C219.822 137.2 222.156 137.6 225.089 137.2C228.156 136.8 231.622 135.867 235.489 134.4C239.356 132.933 243.289 131.333 247.289 129.6C250.489 128.267 253.422 126.8 256.089 125.2C258.756 123.6 260.756 122.2 262.089 121C263.156 120.2 264.489 119.4 266.089 118.6C267.822 117.667 269.289 117.2 270.489 117.2C272.356 116.533 273.422 116.267 273.689 116.4C273.956 116.533 274.089 117.133 274.089 118.2C274.089 120.067 273.022 122.133 270.889 124.4C268.889 126.667 266.289 128.733 263.089 130.6C262.022 131.667 260.622 132.8 258.889 134C257.156 135.2 255.356 136.133 253.489 136.8C250.689 138.933 247.222 141 243.089 143C238.956 145 234.756 146.533 230.489 147.6C226.356 148.667 222.556 148.867 219.089 148.2ZM360.225 132.6C357.692 133.267 355.825 133.533 354.625 133.4C353.425 133.133 351.825 132 349.825 130C348.625 128.133 347.558 126.467 346.625 125C345.692 123.533 345.092 120.933 344.825 117.2C344.692 114.667 344.825 111.933 345.225 109C345.758 105.933 345.958 103.733 345.825 102.4C346.892 97.4667 347.292 93.5333 347.025 90.6C346.892 87.5333 346.492 86 345.825 86C344.358 85.7333 341.692 87.2 337.825 90.4C334.092 93.4667 329.758 97.5333 324.825 102.6C320.025 107.533 315.225 112.733 310.425 118.2C307.892 121.667 306.092 124.267 305.025 126C303.958 127.6 303.158 128.4 302.625 128.4C301.692 128.4 300.425 128.067 298.825 127.4C297.225 126.733 295.825 125.933 294.625 125C293.425 123.933 292.758 123 292.625 122.2C292.625 121.667 292.958 120.267 293.625 118C294.292 115.6 295.092 112.867 296.025 109.8C297.092 106.733 298.025 103.867 298.825 101.2C299.625 98.5333 300.225 96.6667 300.625 95.6C301.825 92.1333 303.225 87.9333 304.825 83C306.558 77.9333 308.092 73.4667 309.425 69.6C309.958 67.8667 310.892 65.4 312.225 62.2C313.558 58.8667 314.892 55.5333 316.225 52.2C317.558 48.8667 318.492 46.4 319.025 44.8C319.425 43.7333 320.158 41.8667 321.225 39.2C322.292 36.4 323.425 33.3333 324.625 30C325.958 26.6667 327.158 23.6 328.225 20.8C329.425 17.8667 330.225 15.7333 330.625 14.4C330.492 13.2 330.558 12.1333 330.825 11.2C331.225 10.1333 331.625 9.33333 332.025 8.79999C332.558 8.79999 333.158 8.79999 333.825 8.79999C334.492 8.66666 334.825 8.6 334.825 8.6C334.825 8.33332 335.358 8.59999 336.425 9.4C337.492 10.2 338.492 11.2 339.425 12.4C340.492 13.4667 341.025 14.4 341.025 15.2C341.692 16.9333 341.758 19.2 341.225 22C340.692 24.6667 339.292 28.7333 337.025 34.2C335.558 36.3333 334.092 39.5333 332.625 43.8C331.292 48.0667 329.958 51.6667 328.625 54.6C328.092 55.5333 327.092 57.5333 325.625 60.6C324.292 63.6667 322.692 67.2667 320.825 71.4C319.092 75.5333 317.425 79.7333 315.825 84C314.225 88.1333 312.958 91.8667 312.025 95.2C310.692 98.4 310.225 100.533 310.625 101.6C311.025 102.667 312.625 101.467 315.425 98C319.158 94 323.092 89.9333 327.225 85.8C331.358 81.6667 335.225 78.2 338.825 75.4C342.558 72.4667 345.558 71.1333 347.825 71.4C349.025 71.6667 350.292 72.4667 351.625 73.8C353.092 75.1333 354.492 76.6667 355.825 78.4C357.158 80.1333 358.092 81.8 358.625 83.4C359.158 85.4 359.492 87.1333 359.625 88.6C359.892 90.0667 359.958 92.2667 359.825 95.2C359.692 98 359.358 102.467 358.825 108.6C358.025 113.133 357.492 116.4 357.225 118.4C356.958 120.267 357.025 121.6 357.425 122.4C357.958 123.2 358.758 124.067 359.825 125C361.825 126.6 362.825 128 362.825 129.2C362.958 130.4 362.092 131.533 360.225 132.6ZM391.445 130.8C389.445 130.533 387.712 129.133 386.245 126.6C384.912 123.933 384.112 121.533 383.845 119.4C383.979 118.333 384.112 116.8 384.245 114.8C384.512 112.8 384.779 110.733 385.045 108.6C385.579 106.067 386.312 103 387.245 99.4C388.179 95.6667 389.112 91.9333 390.045 88.2C391.112 84.4667 392.045 81.2667 392.845 78.6C393.645 75.9333 394.179 74.3333 394.445 73.8C395.112 72.7333 396.179 72.4667 397.645 73C399.112 73.5333 400.312 74.3333 401.245 75.4C402.045 76.4667 402.512 77.7333 402.645 79.2C402.912 80.6667 402.712 82.8 402.045 85.6C401.512 88.4 400.445 92.5333 398.845 98C397.379 103.333 396.245 107.667 395.445 111C394.779 114.2 394.512 117.6 394.645 121.2C394.112 125.733 393.712 128.533 393.445 129.6C393.179 130.533 392.512 130.933 391.445 130.8ZM414.445 51C413.912 51.4 413.379 51.6 412.845 51.6C412.445 51.4667 411.712 51.0667 410.645 50.4C409.712 50.2667 408.512 49.6667 407.045 48.6C405.712 47.4 404.512 46.2 403.445 45C402.512 43.6667 402.045 42.8667 402.045 42.6C401.912 41.2667 401.979 39.6 402.245 37.6C402.645 35.4667 403.379 33.6 404.445 32C405.512 30.2667 407.045 29.3333 409.045 29.2C409.579 29.2 410.045 29.2667 410.445 29.4C410.845 29.5333 412.045 30 414.045 30.8C415.112 32.8 416.179 35.0667 417.245 37.6C418.312 40 418.779 42.4 418.645 44.8C418.512 47.0667 417.112 49.1333 414.445 51ZM489.55 127.8C486.883 127.8 484.683 127.267 482.95 126.2C481.217 125 479.75 123.067 478.55 120.4C478.017 118.533 477.55 116.467 477.15 114.2C476.883 111.8 476.75 109.6 476.75 107.6C476.75 105.467 476.95 104.067 477.35 103.4C477.883 102.867 478.083 101.933 477.95 100.6C477.95 99.1333 477.95 97.6 477.95 96C477.817 93.3333 477.15 91.8667 475.95 91.6C474.883 91.2 473.283 91.6 471.15 92.8C468.75 94.2667 465.617 96.2667 461.75 98.8C457.883 101.2 453.817 103.867 449.55 106.8C445.417 109.733 441.483 112.8 437.75 116C434.817 119.2 433.017 121.667 432.35 123.4C431.817 125 431.017 125.8 429.95 125.8C428.883 126.333 427.95 126.4 427.15 126C426.483 125.467 425.483 124.667 424.15 123.6C423.217 122.533 422.283 121.533 421.35 120.6C420.417 119.533 419.817 118.733 419.55 118.2C419.55 117.533 419.75 116.133 420.15 114C420.55 111.867 421.017 109.733 421.55 107.6C422.217 105.467 422.683 104.067 422.95 103.4C423.617 103.4 424.15 102.733 424.55 101.4C425.083 100.067 425.883 98.6 426.95 97C427.217 95.4 427.883 93.2667 428.95 90.6C430.15 87.8 431.217 85.3333 432.15 83.2C434.017 80 435.283 77.3333 435.95 75.2C436.75 73.0667 437.283 70.4 437.55 67.2C437.417 66.6667 437.55 66.2 437.95 65.8C438.35 65.2667 438.817 65 439.35 65C440.417 63.9333 441.683 63.6667 443.15 64.2C444.617 64.6 445.95 65.6 447.15 67.2C449.55 70.4 450.483 73.7333 449.95 77.2C449.55 80.5333 447.417 85.3333 443.55 91.6C442.617 93.7333 441.883 95.4 441.35 96.6C440.95 97.6667 440.75 98.5333 440.75 99.2C440.75 99.2 441.417 98.7333 442.75 97.8C444.217 96.8667 445.817 95.8 447.55 94.6C449.417 93.2667 450.883 92.2667 451.95 91.6C452.617 90.9333 454.15 89.7333 456.55 88C458.95 86.2667 461.483 84.6 464.15 83C466.95 81.2667 469.017 80.2667 470.35 80C471.417 79.4667 472.55 79 473.75 78.6C474.95 78.0667 475.817 77.8 476.35 77.8C477.417 77.8 478.75 78.4 480.35 79.6C482.083 80.6667 483.683 82 485.15 83.6C486.617 85.0667 487.483 86.3333 487.75 87.4C487.75 87.9333 487.75 88.4667 487.75 89C487.883 89.5333 488.017 90.0667 488.15 90.6C488.683 92.3333 488.95 94.6667 488.95 97.6C489.083 100.533 489.017 103.2 488.75 105.6C488.483 108 488.017 109.4 487.35 109.8C487.35 109.8 487.35 110 487.35 110.4C487.483 110.667 487.817 110.8 488.35 110.8C488.35 111.333 488.35 111.667 488.35 111.8C487.683 111.8 487.417 112.4 487.55 113.6C487.683 114.667 488.083 115.867 488.75 117.2C489.55 118.533 490.35 119.6 491.15 120.4C492.75 122 493.417 123.533 493.15 125C492.883 126.333 491.683 127.267 489.55 127.8ZM522.789 132.2C517.589 130.067 514.189 127.133 512.589 123.4C511.122 119.533 510.856 113.6 511.789 105.6C512.056 101.467 512.189 98.7333 512.189 97.4C512.189 96.0667 511.456 94.7333 509.989 93.4C509.589 92.8667 508.856 92.1333 507.789 91.2C506.856 90.2667 506.456 89.4667 506.589 88.8C506.456 87.8667 506.522 86.8667 506.789 85.8C507.056 84.6 507.456 84 507.989 84C508.522 84 509.056 83.8667 509.589 83.6C510.256 83.3333 510.856 83.3333 511.389 83.6C511.922 83.6 512.522 83.6667 513.189 83.8C513.856 83.9333 514.189 84.2667 514.189 84.8C514.722 85.7333 515.589 85.8667 516.789 85.2C517.989 84.4 519.256 82.6667 520.589 80C521.922 77.8667 523.656 75.7333 525.789 73.6C528.056 71.4667 530.256 69.5333 532.389 67.8C534.656 65.9333 536.522 64.6 537.989 63.8C538.656 63.5333 539.656 63.2 540.989 62.8C542.322 62.4 543.722 62.0667 545.189 61.8C546.789 61.5333 548.122 61.4667 549.189 61.6C551.589 61.7333 553.589 62.4 555.189 63.6C556.922 64.8 558.522 66.2 559.989 67.8C561.722 69 562.789 70.6 563.189 72.6C563.722 74.6 563.856 76.7333 563.589 79C563.322 81.2667 562.722 83.3333 561.789 85.2C561.389 86.5333 560.256 88.1333 558.389 90C556.522 91.8667 554.389 93.6667 551.989 95.4C549.589 97.1333 547.389 98.4 545.389 99.2C543.656 99.6 541.389 99.9333 538.589 100.2C535.922 100.467 533.389 100.6 530.989 100.6C528.722 100.467 527.189 100.2 526.389 99.8C525.456 99.2667 524.722 100 524.189 102C523.656 104 523.256 106.867 522.989 110.6C522.722 113.533 522.722 115.667 522.989 117C523.256 118.333 523.522 119.267 523.789 119.8C524.722 120.733 525.989 121.933 527.589 123.4C529.322 124.733 531.722 124.933 534.789 124C537.322 123.333 539.789 121.6 542.189 118.8C544.722 116 547.056 113.733 549.189 112C549.722 111.067 550.589 110.533 551.789 110.4C553.122 110.133 554.522 110.2 555.989 110.6C557.456 111.533 558.056 112.667 557.789 114C557.656 115.2 556.989 117.067 555.789 119.6C555.389 120.533 554.456 121.733 552.989 123.2C551.656 124.533 550.122 125.933 548.389 127.4C546.789 128.733 545.322 129.8 543.989 130.6C539.989 132.733 536.256 133.867 532.789 134C529.322 134 525.989 133.4 522.789 132.2ZM534.589 91.6C537.522 90.9333 539.856 90.4667 541.589 90.2C543.322 89.9333 544.989 89.2 546.589 88C548.189 86.6667 550.189 84.2 552.589 80.6C553.122 79.1333 553.256 77.6667 552.989 76.2C552.856 74.7333 552.522 73.7333 551.989 73.2C550.789 71.8667 549.322 71.4667 547.589 72C545.989 72.4 544.456 73.1333 542.989 74.2C542.056 74.6 540.656 75.6 538.789 77.2C537.056 78.6667 535.322 80.4 533.589 82.4C531.856 84.2667 530.456 86 529.389 87.6C528.322 89.2 528.056 90.1333 528.589 90.4C528.322 90.9333 529.056 91.2667 530.789 91.4C532.656 91.5333 533.922 91.6 534.589 91.6ZM592.828 135.2C589.495 135.467 586.295 135.267 583.228 134.6C580.295 133.933 577.761 132.8 575.628 131.2C573.628 129.467 572.228 127.4 571.428 125C570.495 123.133 570.028 121.867 570.028 121.2C570.028 120.4 570.495 119.733 571.428 119.2C572.495 119.2 573.428 119.533 574.228 120.2C575.161 120.733 576.361 121.333 577.828 122C579.828 123.733 582.228 124.667 585.028 124.8C587.961 124.933 590.628 124.467 593.028 123.4C595.428 122.333 596.761 121 597.028 119.4C597.028 118.867 596.828 117.933 596.428 116.6C596.028 115.267 595.561 113.867 595.028 112.4C591.428 107.333 588.761 102.333 587.028 97.4C585.428 92.3333 584.628 88.2 584.628 85C584.628 82.6 585.361 80.0667 586.828 77.4C588.295 74.6 590.295 72.2667 592.828 70.4C595.228 67.8667 597.895 65.6 600.828 63.6C603.761 61.6 606.695 59.8667 609.628 58.4C612.695 56.9333 615.428 55.8667 617.828 55.2C619.295 55.2 621.228 55.4 623.628 55.8C626.028 56.2 627.695 56.6667 628.628 57.2C630.095 57.7333 631.495 59.2 632.828 61.6C634.161 63.8667 634.828 66.1333 634.828 68.4C634.828 69.3333 634.561 70.5333 634.028 72C633.495 73.4667 632.628 75.2 631.428 77.2C630.895 78.6667 630.295 80.0667 629.628 81.4C628.961 82.6 628.628 83.4667 628.628 84C627.961 85.4667 627.028 86.2 625.828 86.2C624.761 86.0667 623.628 85.4667 622.428 84.4C621.361 83.2 620.495 81.8 619.828 80.2C619.295 78.2 619.095 76.6 619.228 75.4C619.361 74.0667 619.895 72.6667 620.828 71.2C622.295 69.7333 623.028 68.7333 623.028 68.2C623.028 67.6667 622.295 67.4 620.828 67.4C619.895 67.4 618.161 68 615.628 69.2C613.228 70.2667 610.628 71.7333 607.828 73.6C605.161 75.3333 602.828 77.2 600.828 79.2C598.295 81.6 596.761 83.3333 596.228 84.4C595.828 85.4667 595.628 87.1333 595.628 89.4C595.628 91.2667 596.028 93.6 596.828 96.4C597.761 99.2 598.695 101.067 599.628 102C599.628 102 600.095 102.933 601.028 104.8C601.961 106.533 603.095 108.4 604.428 110.4C608.295 118.933 609.295 125.067 607.428 128.8C605.561 132.533 600.695 134.667 592.828 135.2ZM677.192 130C674.392 132.4 671.126 133.8 667.392 134.2C663.792 134.6 660.259 134.067 656.792 132.6C653.326 131 650.459 128.6 648.192 125.4C645.926 122.467 644.459 119.133 643.792 115.4C643.126 111.533 643.059 106.533 643.592 100.4C643.992 95.2 645.659 90 648.592 84.8C651.526 79.4667 655.059 74.7333 659.192 70.6C663.459 66.4667 667.659 63.6 671.792 62C673.792 60.6667 675.459 60.0667 676.792 60.2C678.259 60.2 680.459 60.3333 683.392 60.6C686.459 61 688.726 61.6 690.192 62.4C691.792 63.2 693.059 64.2667 693.992 65.6C695.992 67.6 697.326 69.6 697.992 71.6C698.659 73.4667 698.992 75.3333 698.992 77.2C698.459 80.1333 696.459 83.7333 692.992 88C689.659 92.1333 685.259 95.5333 679.792 98.2C676.859 99.1333 673.659 99.5333 670.192 99.4C666.726 99.2667 663.859 98.4 661.592 96.8C659.059 95.7333 657.392 95.9333 656.592 97.4C655.792 98.7333 655.059 102.067 654.392 107.4C653.859 112.467 654.259 116.2 655.592 118.6C656.926 120.867 658.726 122.2 660.992 122.6C663.659 123.133 665.726 123.533 667.192 123.8C668.792 123.933 670.726 123.333 672.992 122C675.126 120.667 676.459 119.933 676.992 119.8C677.526 119.533 677.926 119.267 678.192 119C678.592 118.6 679.459 117.733 680.792 116.4C681.726 115.467 682.459 114.8 682.992 114.4C683.526 113.867 684.126 113.6 684.792 113.6C685.459 113.6 686.059 113.933 686.592 114.6C687.126 115.133 687.659 115.533 688.192 115.8C689.526 115.8 689.792 116.6 688.992 118.2C688.326 119.8 686.926 121.733 684.792 124C682.659 126.133 680.126 128.133 677.192 130ZM676.992 87.6C678.459 86.9333 679.992 86 681.592 84.8C683.192 83.4667 684.526 82.0667 685.592 80.6C686.792 79 687.392 77.6667 687.392 76.6C687.392 74.7333 686.526 73.2 684.792 72C683.059 70.6667 680.459 70.4667 676.992 71.4C675.526 71.8 673.859 72.8 671.992 74.4C670.126 75.8667 668.326 77.5333 666.592 79.4C664.992 81.2667 663.659 82.9333 662.592 84.4C661.659 85.8667 661.326 86.7333 661.592 87C661.992 87.6667 663.126 88.2 664.992 88.6C666.859 88.8667 668.926 88.9333 671.192 88.8C673.592 88.6667 675.526 88.2667 676.992 87.6Z" fill="url(#paint0_linear_177_2)"/>
<defs>
<linearGradient id="paint0_linear_177_2" x1="405.44" y1="-55" x2="405.44" y2="202.843" gradientUnits="userSpaceOnUse">
<stop stop-color="#D08770"/>
<stop offset="1" stop-color="#5E81AC"/>
</linearGradient>
</defs>
</svg>
