<svg width="101" height="102" viewBox="0 0 101 102" fill="none" xmlns="http://www.w3.org/2000/svg">
<path d="M29.9999 5.35011C31.3456 6.06769 31.5818 7.13258 32.4999 8.35044C34.4963 10.9988 36.8652 15.6353 36.8652 15.6353L28.9608 19.9389C28.9608 19.9389 26.9532 16.6288 25.9999 14.3504C24.9746 11.9003 23.1046 10.3506 23.9997 7.84997C24.5137 6.4142 25.0618 5.35796 26.4998 4.8503C27.8018 4.39067 28.7815 4.70048 29.9999 5.35011Z" fill="#B48EAD"/>
<path d="M43.8354 2.42229C45.0718 3.31528 45.1618 4.40232 45.9067 5.73315C47.5267 8.62716 49.2468 13.5414 49.2468 13.5414L40.8331 16.7365C40.8331 16.7365 39.2916 13.1854 38.655 10.799C37.9705 8.23271 36.3273 6.44445 37.5523 4.0878C38.2557 2.73471 38.9417 1.76231 40.4351 1.45377C41.7873 1.17443 42.7161 1.61388 43.8354 2.42229Z" fill="#B48EAD"/>
<path d="M57.0615 2.54163C58.1532 3.60669 58.0823 4.69514 58.6236 6.12104C59.8005 9.22177 60.7794 14.3355 60.7794 14.3355L51.9873 16.2589C51.9873 16.2589 50.9846 12.5198 50.7059 10.0657C50.4061 7.42666 49.0436 5.41624 50.6019 3.2653C51.4965 2.03033 52.318 1.16934 53.8406 1.08373C55.2191 1.00621 56.0732 1.57745 57.0615 2.54163Z" fill="#B48EAD"/>
<path d="M100.5 55.3506C100.5 82.9648 77.6142 101.851 50 101.851C22.3858 101.851 3 83.3506 0 58.8506C0 31.2363 22.3858 8.85059 50 8.85059C77.6142 8.85059 100.5 27.7363 100.5 55.3506Z" fill="#B48EAD"/>
<path d="M35.5 39.8506C41.6667 47.1839 58.5 57.6506 76.5 40.8506" stroke="black" stroke-width="2" stroke-linecap="round"/>
<path d="M42.5 38.3506C43.8333 40.1839 47.3 42.7506 50.5 38.3506" stroke="black" stroke-width="2" stroke-linecap="round"/>
<path d="M60 37.8506C61.3333 39.6839 64.8 42.2506 68 37.8506" stroke="black" stroke-width="2" stroke-linecap="round"/>
<path d="M46.0067 67.36C46.0067 66.5902 46.84 66.109 47.5067 66.4939L61.8388 74.7686C62.5054 75.1535 62.5054 76.1157 61.8388 76.5006L47.5067 84.7753C46.84 85.1602 46.0067 84.679 46.0067 83.9092L46.0067 67.36Z" fill="#5E81AC"/>
<circle cx="64" cy="75.8506" r="7" fill="#5E81AC"/>
<path d="M83.5614 67.36C83.5614 66.5902 82.7281 66.109 82.0614 66.4939L67.7294 74.7686C67.0627 75.1535 67.0627 76.1157 67.7294 76.5006L82.0614 84.7753C82.7281 85.1602 83.5614 84.679 83.5614 83.9092L83.5614 67.36Z" fill="#5E81AC"/>
</svg>
