<svg width="178" height="178" viewBox="0 0 178 178" fill="none" xmlns="http://www.w3.org/2000/svg">
<path d="M37.6509 164.031C-30.4338 108.192 9.10419 55.3538 37.5744 35.7584C37.7053 35.6684 37.8422 35.5977 37.9908 35.5415L70.6234 23.1806C70.7191 23.1443 70.8191 23.1151 70.9191 23.0941C118.046 13.1952 154.781 45.3114 167.267 62.6261C176.1 76.9595 187.067 113.626 160.267 145.626C116.346 192.742 60.4677 177.68 37.8884 164.199C37.805 164.149 37.726 164.092 37.6509 164.031Z" fill="#A3BE8C"/>
<path d="M66.7671 57.126C77.1004 67.126 105.467 81.126 136.267 57.126" stroke="black" stroke-width="2" stroke-linecap="round"/>
<path d="M83.2671 49.126C85.6004 53.2926 91.8671 59.126 98.2671 49.126" stroke="black" stroke-width="2" stroke-linecap="round"/>
<path d="M104.767 48.626C107.1 52.7926 113.367 58.626 119.767 48.626" stroke="black" stroke-width="2" stroke-linecap="round"/>
<path d="M70.2672 6.62582V23.6258L56.2672 36.626L38.2672 35.626L20.7672 17.126C19.5672 5.92598 29.6005 4.45931 34.7672 5.12598L47.7672 17.126H49.7672V6.62582C58.5672 -5.37418 67.1005 1.62582 70.2672 6.62582Z" fill="#A3BE8C"/>
</svg>
