<svg width="359" height="219" viewBox="0 0 359 219" fill="none" xmlns="http://www.w3.org/2000/svg">
<path d="M140.031 178C140.031 208.652 88.0294 210 50.0184 217.5C20.0949 223.404 -5.48079 210.5 1.01867 145.5C1.01867 114.848 34.0187 67.9999 78.5187 78C106.133 78 140.031 147.348 140.031 178Z" fill="#EBCB8B"/>
<path d="M33.5312 115.5C39.6979 121.333 57.1313 130 77.5312 118" stroke="black" stroke-linecap="round"/>
<path d="M45.5312 110C47.1979 112.667 51.4313 116.4 55.0312 110" stroke="black" stroke-linecap="round"/>
<path d="M61.0312 110C62.6979 112.667 66.9313 116.4 70.5312 110" stroke="black" stroke-linecap="round"/>
<path d="M358.031 150C358.031 193 327.153 206 291.531 206C171.028 210.5 217.032 169.951 217.032 133.5C217.032 97.0493 253.531 71.0002 291.531 74.0001C332.902 77.2663 358.031 113.549 358.031 150Z" fill="#88C0D0"/>
<path d="M299.531 102.5C301.031 104.667 304.731 107.7 307.531 102.5" stroke="black"/>
<path d="M315.031 103C316.531 105.167 320.231 108.2 323.031 103" stroke="black" stroke-linecap="round"/>
<path d="M109.225 6.24847C111.983 5.81934 114.682 7.00264 116.787 8.83532L144.381 32.8612L129.148 48.7345L103.081 22.5603C101.424 20.8972 100.263 18.7453 100.284 16.3982C100.292 15.5626 100.357 14.7107 100.531 14C101.05 11.8795 101.488 10.5437 103.031 9.00001C104.575 7.45651 105.931 7.09496 108.031 6.50003C108.396 6.39667 108.802 6.3142 109.225 6.24847Z" fill="#A3BE8C"/>
<path d="M145.776 2.19786C149.022 4.18849 150.558 8.01367 150.604 11.8211L151.026 46.792L129.031 46.3484L130.598 9.7702C130.707 7.21195 131.562 4.67285 133.493 2.99117C134.042 2.5131 134.621 2.07306 135.178 1.7657C137.089 0.710534 138.368 0.126778 140.549 0.215816C142.731 0.304843 143.915 1.05664 145.776 2.19786Z" fill="#A3BE8C"/>
<ellipse cx="172.531" cy="109" rx="93.5" ry="85" fill="#A3BE8C"/>
<path d="M136.531 54.5C147.198 65.1667 176.631 80.1 209.031 54.5" stroke="black" stroke-linecap="round"/>
<path d="M152.531 45.5C155.865 49.8333 163.731 55.9 168.531 45.5" stroke="black" stroke-linecap="round"/>
<path d="M193.031 46C189.698 50.3333 181.831 56.4 177.031 46" stroke="black" stroke-linecap="round"/>
</svg>
