<svg width="512" height="257" viewBox="0 0 512 257" fill="none" xmlns="http://www.w3.org/2000/svg">
<path d="M511.999 159.347C509.522 253.388 391.971 245.551 258.612 256C112.177 256 -0.00055874 268.054 -0.00055874 195.918C5.47983 156.642 22.9349 139.02 52.1081 113.582C53.0409 112.769 53.7085 111.666 54.0224 110.469C74.5648 32.1451 164.955 0 258.612 0C321.736 0 369.767 27.4286 395.889 80.9796C499.207 95.3469 511.999 118.308 511.999 159.347Z" fill="#A6A6A6"/>
<path d="M125.522 151.51C132.488 151.945 147.726 149.159 152.95 134.531" stroke="black" stroke-width="3" stroke-linecap="round"/>
<path d="M210.419 128C217.385 133.66 231.84 144.98 233.93 144.98" stroke="black" stroke-width="3" stroke-linecap="round"/>
<path d="M156.869 173.714C164.705 169.361 184.558 163.265 201.277 173.714" stroke="black" stroke-width="3" stroke-linecap="round"/>
<path d="M149.032 109.714C166.882 108.408 198.926 102.923 184.297 91.4287C166.012 77.0614 156.869 104.49 210.42 107.102" stroke="#888888" stroke-width="2" stroke-linecap="round"/>
</svg>
