<svg width="120" height="383" viewBox="0 0 120 383" fill="none" xmlns="http://www.w3.org/2000/svg">
<g filter="url(#filter0_d_68_247)">
<path d="M92.7571 374C90.548 374 88.7571 372.209 88.7571 370L88.7571 258.87C88.7571 255.556 86.0709 252.87 82.7571 252.87H46.8857C44.6766 252.87 42.8857 251.079 42.8857 248.87L42.8857 138.178C42.8857 134.864 40.1994 132.178 36.8857 132.178H9C6.79086 132.178 5 130.387 5 128.178L5 5C5 2.79083 6.79086 1 9 1H116C118.209 1 120 2.79083 120 5L120 370C120 372.209 118.209 374 116 374H92.7571Z" stroke="black" stroke-width="2" shape-rendering="crispEdges"/>
</g>
<defs>
<filter id="filter0_d_68_247" x="0" y="0" width="125" height="383" filterUnits="userSpaceOnUse" color-interpolation-filters="sRGB">
<feFlood flood-opacity="0" result="BackgroundImageFix"/>
<feColorMatrix in="SourceAlpha" type="matrix" values="0 0 0 0 0 0 0 0 0 0 0 0 0 0 0 0 0 0 127 0" result="hardAlpha"/>
<feOffset dy="4"/>
<feGaussianBlur stdDeviation="2"/>
<feComposite in2="hardAlpha" operator="out"/>
<feColorMatrix type="matrix" values="0 0 0 0 0 0 0 0 0 0 0 0 0 0 0 0 0 0 0.25 0"/>
<feBlend mode="normal" in2="BackgroundImageFix" result="effect1_dropShadow_68_247"/>
<feBlend mode="normal" in="SourceGraphic" in2="effect1_dropShadow_68_247" result="shape"/>
</filter>
</defs>
</svg>
