<svg width="204" height="204" viewBox="0 0 204 204" fill="none" xmlns="http://www.w3.org/2000/svg">
<path d="M86.097 40.472C86.111 40.4 86.128 40.328 86.141 40.256L86.097 40.472ZM85.697 42.632C84.697 39.968 84.721 37.061 84.064 34.304C84.064 34.303 84.064 34.304 84.064 34.302C84.064 34.301 84.064 34.3 84.064 34.3C84.063 34.296 84.062 34.293 84.061 34.289C84.061 34.291 84.062 34.293 84.062 34.295C84.046 34.223 84.027 34.152 84.005 34.081C77.746 38.18 80.288 35.264 82.878 31.528C82.874 31.535 82.871 31.543 82.867 31.55C82.871 31.542 82.875 31.534 82.879 31.525C82.858 31.518 82.837 31.512 82.816 31.505C82.824 31.508 82.831 31.51 82.839 31.512C81.289 31.088 79.721 30.67 78.38 29.743C78.249 29.669 78.019 29.497 78.186 29.345C80.002 29.11 81.933 29.463 83.752 29.135C83.781 28.938 83.786 28.739 83.805 28.541C83.783 26.212 84.488 23.708 84.712 21.322C85.913 23.628 86.149 26.332 87.327 28.627C89.098 28.482 90.677 27.6 92.391 27.263C92.852 27.207 92.84 27.576 92.558 27.824C91.466 29.114 90.34 30.412 88.96 31.402C89.705 31.717 92.455 32.34 92.564 33.1C92.532 33.186 92.451 33.233 92.363 33.243C91.151 33.338 89.95 33.582 88.781 33.91C88.062 34.165 87.248 34.102 87.25 35.076C87.249 35.082 87.248 35.088 87.247 35.093C87.247 35.091 87.248 35.09 87.248 35.089C86.691 37.567 86.904 40.427 85.714 42.675C85.707 42.663 85.702 42.648 85.697 42.632Z" fill="#F4D07C"/>
<path d="M19.204 102.844C19.22 102.761 19.24 102.679 19.254 102.595L19.204 102.844ZM18.745 105.326C17.596 102.264 17.623 98.923 16.868 95.755C16.868 95.754 16.868 95.754 16.868 95.753C16.868 95.752 16.868 95.751 16.868 95.75C16.867 95.746 16.866 95.742 16.865 95.738C16.865 95.74 16.866 95.742 16.866 95.744C16.847 95.661 16.826 95.58 16.801 95.499C9.60698 100.21 12.529 96.858 15.506 92.565C15.502 92.573 15.498 92.582 15.494 92.591C15.499 92.582 15.504 92.572 15.508 92.563C15.484 92.555 15.46 92.547 15.436 92.54C15.445 92.543 15.453 92.545 15.463 92.548C13.681 92.061 11.879 91.58 10.339 90.515C10.188 90.43 9.92397 90.232 10.116 90.057C12.203 89.787 14.423 90.193 16.513 89.816C16.546 89.59 16.553 89.361 16.574 89.134C16.549 86.457 17.359 83.58 17.616 80.838C18.996 83.488 19.267 86.595 20.621 89.233C22.657 89.066 24.471 88.052 26.441 87.666C26.97 87.602 26.957 88.025 26.633 88.311C25.377 89.794 24.084 91.285 22.497 92.423C23.353 92.785 26.514 93.502 26.639 94.375C26.602 94.474 26.509 94.528 26.408 94.539C25.015 94.649 23.635 94.928 22.291 95.306C21.465 95.598 20.529 95.526 20.532 96.646C20.532 96.646 20.532 96.645 20.532 96.644C20.532 96.645 20.532 96.646 20.532 96.647C20.531 96.654 20.53 96.66 20.528 96.667C20.528 96.665 20.529 96.664 20.529 96.662C19.89 99.509 20.134 102.797 18.766 105.38C18.757 105.362 18.751 105.344 18.745 105.326Z" fill="#F4D07C"/>
<path d="M152.342 118.706C152.346 118.742 152.35 118.778 152.353 118.814C152.351 118.778 152.347 118.741 152.343 118.705L152.342 118.706ZM153.021 136.582C152.79 136.553 152.685 136.32 152.549 136.159C151.371 134.551 150.201 132.93 149.224 131.19C148.045 132.158 146.955 133.233 145.847 134.281L145.849 134.28L145.847 134.282C145.769 134.358 145.691 134.435 145.612 134.511C145.614 134.51 145.615 134.508 145.617 134.506C145.609 134.514 145.602 134.521 145.594 134.529C145.589 134.534 145.584 134.539 145.579 134.544C145.584 134.54 145.588 134.536 145.592 134.531C145.503 134.645 145.365 134.816 145.212 134.696C145.156 134.658 145.134 134.578 145.167 134.518C145.369 134.143 145.59 133.777 145.79 133.401C146.561 131.93 147.281 130.432 147.942 128.909C147.378 127.871 146.642 126.959 145.883 126.067C145.868 126.069 145.852 126.071 145.837 126.072C145.605 126.149 145.57 125.826 145.809 125.833C145.834 125.689 146.047 125.671 146.102 125.807C147.157 125.723 148.215 125.662 149.274 125.642C149.972 123.87 150.643 122.086 151.413 120.343C151.411 120.348 151.409 120.352 151.407 120.357C151.575 119.961 151.751 119.567 151.921 119.172C151.919 119.177 151.917 119.181 151.916 119.185C152.662 117.242 152.563 119.349 152.589 120.114C152.61 121.948 152.638 123.782 152.714 125.615C153.973 125.636 155.251 125.524 156.5 125.618C157.116 125.934 155.646 126.599 155.411 126.817C154.539 127.385 153.693 127.99 152.847 128.595C152.987 131.101 153.137 133.605 153.234 136.112C153.243 136.274 153.25 136.598 153.021 136.582Z" fill="#F4D07C"/>
<path d="M34.735 174.722C27.166 174.587 20.083 170.585 14.641 165.542C5.99096 157.65 2.78996 144.753 6.22996 133.628C11.365 117.201 29.036 119.592 26.751 137.781C26.752 137.754 26.753 137.727 26.754 137.7C26.81 144.337 23.528 151.979 27.725 157.893C32.621 165.531 42.199 161.846 43.851 168.759C43.85 168.754 43.849 168.749 43.848 168.744C43.85 168.752 43.851 168.761 43.853 168.769L43.854 168.772V168.77C43.856 168.783 43.859 168.797 43.862 168.81V168.808L43.863 168.811C43.865 168.82 43.867 168.829 43.869 168.837C43.868 168.833 43.866 168.828 43.866 168.824C44.66 173.588 38.331 174.825 34.735 174.722Z" fill="#EADBCE"/>
<path d="M167.614 82.99C165.235 83.136 163.723 85.369 162.826 87.349C162.026 89.085 162.338 91.133 161.276 92.771C160.593 94.741 141.54 92.81 139.297 91.815C136.615 90.508 134.226 88.597 132.364 86.257C131.613 85.311 130.95 84.317 130.326 83.283C129.78 82.444 129.302 81.547 129.088 80.562C126.397 72.118 124.115 63.166 121.511 54.77C118.147 45.146 115.202 35.94 112.238 25.906C109.966 30.245 108.035 34.75 105.851 39.138C105.851 39.148 105.851 39.148 105.841 39.158V39.168C105.831 39.178 105.821 39.188 105.821 39.197C104.826 41.02 104.134 42.99 103.266 44.882C101.998 47.885 101.179 51.464 99.619 54.448C98.137 53.999 96.655 53.609 95.143 53.278C90.063 52.098 84.826 51.757 79.629 51.786C79.639 51.786 79.658 51.786 79.668 51.776C74.646 52.059 69.468 52.702 64.875 54.877C62.749 47.681 60.146 40.903 57.503 34C56.157 31.016 55.406 27.759 53.739 24.97C50.882 30.314 49.692 36.281 47.937 42.103C45.802 49.933 43.568 57.617 42.652 65.672C39.853 76.886 36.938 87.788 35.973 99.187C35.827 100.952 35.729 102.766 35.798 104.531C36.276 108.695 35.447 112.634 35.145 116.778C34.209 126.89 33.107 137.031 33.253 147.211C33.536 157.031 34.15 167.123 37.67 176.387C39.123 181.711 43.267 185.573 48.543 187.026C45.92 189.688 48.718 193.355 51.858 193.686C51.887 193.696 51.917 193.696 51.946 193.706C54.589 194.233 57.28 193.638 59.854 192.994C60.059 192.945 60.254 192.897 60.449 192.848C61.151 192.712 61.619 193.501 62.214 193.765C63.15 194.35 64.174 194.73 65.237 194.945C66.612 195.247 68.065 195.276 69.459 195.179C70.922 195.003 71.809 197.548 73.642 197.821C76.099 198.718 78.674 197.431 80.253 195.53C80.331 195.569 80.399 195.618 80.458 195.666H80.507C80.741 195.666 80.878 195.978 81.063 196.095C81.619 196.573 82.233 196.982 82.916 197.226C83.169 197.323 83.442 197.401 83.706 197.44C83.765 197.45 83.813 197.469 83.872 197.479C85.822 197.976 87.587 197.187 89.06 195.929C89.07 195.919 89.08 195.909 89.089 195.909C89.099 195.899 89.109 195.899 89.118 195.889C89.264 194.992 90.239 195.119 90.932 195.07C91.42 194.68 92.034 194.436 92.629 194.241C92.697 194.114 92.766 193.997 92.844 193.88C92.854 193.139 92.961 192.388 92.941 191.647C92.678 191.043 92.912 190.311 92.58 189.697C92.365 189.414 91.712 189.102 92.044 188.702C91.995 187.951 93.039 188.448 93.351 188.722C93.624 188.771 93.809 189.034 94.004 189.219C94.901 189.404 95.467 190.233 95.866 190.994C95.876 191.014 95.886 191.023 95.895 191.043C95.954 191.062 96.022 191.072 96.09 191.062C100.117 194.719 105.656 195.645 111 194.855C114.286 194.377 117.494 193.256 120.225 191.735C120.976 191.13 121.454 190.653 121.844 190.282C122.77 189.414 123.277 189.092 125.783 188.975C141.151 187.785 140.712 170.857 140.615 159.136C140.547 143.32 138.83 127.513 137.612 111.804C144.896 111.482 151.995 111.502 159.299 110.731C166.934 110.517 170.649 108.878 170.571 100.6C170.639 97.694 170.883 95.071 171.517 92.038C172.577 88.549 172.206 83.078 167.614 82.99Z" fill="#E5D2C1"/>
<path d="M121.578 167.787C121.578 178.387 117.531 187.982 110.998 194.856C105.654 195.646 100.116 194.719 96.0879 191.063C96.0199 191.073 95.9519 191.063 95.8929 191.044C95.4829 190.274 94.9179 189.406 94.0009 189.22C93.8059 189.035 93.6209 188.771 93.3479 188.723C93.0359 188.45 91.9929 187.953 92.0409 188.703C91.7099 189.103 92.3629 189.415 92.5769 189.698C92.9079 190.312 92.6749 191.044 92.9379 191.648C92.9579 192.389 92.8499 193.14 92.8409 193.881C92.7729 193.988 92.7039 194.096 92.6459 194.213C92.6359 194.223 92.6359 194.233 92.6269 194.242C92.0319 194.437 91.4179 194.681 90.9299 195.071C90.2379 195.12 89.2629 194.993 89.1159 195.89C89.1059 195.9 89.0959 195.9 89.0869 195.91C89.0769 195.91 89.0679 195.92 89.0579 195.93C87.5859 197.188 85.8209 197.978 83.8699 197.48C83.8109 197.47 83.7629 197.451 83.7039 197.441C83.4409 197.402 83.1679 197.324 82.9139 197.227C82.2309 196.983 81.6169 196.574 81.0609 196.096C80.8759 195.979 80.7389 195.667 80.5049 195.667H80.4559C80.3979 195.618 80.3289 195.57 80.2509 195.531C78.6709 197.432 76.0969 198.72 73.6399 197.822C71.8069 197.549 70.9189 195.004 69.4569 195.18C66.9799 195.355 64.3469 195.121 62.2119 193.766C62.2019 193.766 62.1919 193.756 62.1829 193.746C61.5979 193.473 61.1399 192.712 60.4469 192.849C60.2519 192.898 60.0569 192.947 59.8519 192.995C54.3039 186.296 50.9299 177.471 50.9299 167.788C50.9299 165.545 51.1049 163.361 51.4569 161.225C53.6119 147.954 62.1829 137.052 73.6209 132.342C77.5409 130.733 81.8019 129.846 86.2489 129.846C105.762 129.845 121.578 146.831 121.578 167.787Z" fill="#D08770"/>
<path d="M69.1659 189.785C69.1659 191.911 67.6159 193.793 65.2359 194.943C64.1729 194.728 63.1489 194.348 62.2129 193.763C61.6179 193.5 61.1499 192.71 60.4479 192.846C60.2529 192.895 60.0579 192.944 59.8529 192.992C57.2789 193.636 54.5869 194.23 51.9449 193.704C50.6869 192.622 49.9459 191.256 49.9459 189.784C49.9459 186.235 54.2459 183.368 59.5509 183.368C64.8559 183.369 69.1659 186.236 69.1659 189.785Z" fill="#E5D2C1"/>
<path d="M124.192 143.886L121.842 190.282C121.452 190.653 120.974 191.13 120.223 191.735C117.493 193.256 114.284 194.378 110.998 194.855C105.654 195.645 100.116 194.718 96.088 191.062C96.02 191.072 95.952 191.062 95.893 191.043C95.883 191.023 95.873 191.014 95.864 190.994C96.342 185.075 99.755 184.597 99.755 184.597C101.793 148.47 124.192 143.886 124.192 143.886Z" fill="#E5D2C1"/>
<path d="M92.647 194.212C92.637 194.222 92.637 194.232 92.628 194.241C92.033 194.436 91.419 194.68 90.931 195.07C90.239 195.119 89.264 194.992 89.117 195.889C89.107 195.899 89.097 195.899 89.088 195.909C89.078 195.909 89.069 195.919 89.059 195.929C87.587 197.187 85.822 197.977 83.871 197.479C83.812 197.469 83.764 197.45 83.705 197.44C83.442 197.401 83.169 197.323 82.915 197.226C82.232 196.982 81.618 196.573 81.062 196.095C80.877 195.978 80.74 195.666 80.506 195.666H80.457C80.399 195.617 80.33 195.569 80.252 195.53C78.672 197.431 76.098 198.719 73.641 197.821C71.808 197.548 70.92 195.003 69.458 195.179C66.981 195.354 64.348 195.12 62.213 193.765C62.203 193.765 62.193 193.755 62.184 193.745C61.862 192.936 59.415 186.237 64.875 185.115C64.875 185.115 57.493 174.945 51.457 161.225C47.888 153.102 44.797 143.731 43.988 134.478L73.953 129.846C73.953 129.846 73.807 130.753 73.621 132.342C72.597 141.059 70.354 170.42 84.396 184.472C84.396 184.472 92.471 181.711 92.647 194.212Z" fill="#E5D2C1"/>
<path d="M94.7819 193.508C94.7809 193.442 94.7799 193.376 94.7789 193.311C94.8069 193.418 94.8369 193.525 94.8669 193.632C94.8399 193.663 94.8119 193.694 94.7849 193.725C94.7849 193.652 94.7839 193.58 94.7819 193.508Z" fill="#E5D2C1"/>
<path d="M63.9589 184.883C58.6379 178.072 54.4809 170.377 51.1859 162.403C47.0939 153.623 44.6199 144.149 43.9909 134.477C43.7779 134.179 44.2309 133.632 44.4749 134.071C44.9039 136.341 45.2059 138.649 45.6929 140.915C46.7929 147.476 48.3319 153.946 51.1689 159.995C53.9629 167.001 57.2929 173.828 61.5739 180.053C62.5519 181.519 63.5869 182.945 64.6839 184.323C65.0409 184.773 64.3249 185.366 63.9589 184.883Z" fill="#191919"/>
<path d="M62.2089 193.822C60.0719 191.156 61.3209 187.116 63.6639 184.987C64.0159 184.67 64.7819 183.887 65.0999 184.618C65.1519 184.805 65.0549 185.033 64.8729 185.11C63.9159 185.913 63.1329 186.956 62.6619 188.115C62.1529 189.748 62.1699 191.741 63.1039 193.219C63.4519 193.771 62.5989 194.353 62.2089 193.822Z" fill="#191919"/>
<path d="M74.006 198.266C71.11 197.505 69.349 193.973 70.538 191.21C70.639 190.948 71.015 190.924 71.178 191.136C70.892 193.097 70.978 194.967 72.504 196.531C72.949 197.076 73.565 197.419 74.223 197.645C74.594 197.787 74.387 198.387 74.006 198.266Z" fill="#191919"/>
<path d="M80.2169 195.517C79.6199 195.361 80.0859 194.607 80.0449 194.185C80.0939 193.288 79.9249 192.387 79.6349 191.54C79.6359 191.543 79.6369 191.546 79.6379 191.548C79.5879 191.174 79.1629 190.83 79.3029 190.465V190.466C80.5129 189.46 81.4859 195.496 80.2169 195.517Z" fill="#191919"/>
<path d="M88.655 194.882C88.645 194.271 88.548 193.665 88.36 193.083C88.361 193.087 88.363 193.09 88.364 193.094C88.175 192.542 87.911 192.019 87.586 191.534C87.59 191.539 87.593 191.545 87.596 191.55C87.561 191.498 87.526 191.446 87.49 191.394C87.496 191.403 87.503 191.412 87.509 191.421C86.898 190.506 86.118 189.593 85.05 189.224C84.881 189.203 84.746 189.059 84.746 188.884C84.799 188.324 85.466 188.608 85.787 188.752C87.618 189.65 88.878 191.583 89.325 193.537C89.325 193.535 89.324 193.533 89.324 193.531C89.326 193.539 89.327 193.546 89.329 193.554L89.328 193.551C89.365 194.049 89.712 195.115 89.031 195.257C88.821 195.258 88.661 195.087 88.655 194.882Z" fill="#191919"/>
<path d="M83.768 184.468C71.629 170.008 70.23 146.583 73.508 128.658C73.76 128.07 73.578 126.681 74.393 126.7C74.553 126.768 74.649 126.973 74.57 127.136C74.332 127.694 74.254 128.31 74.125 128.899C74.128 128.885 74.131 128.871 74.134 128.856C73.562 131.685 73.426 134.575 73.212 137.446C73.212 137.44 73.213 137.434 73.213 137.427C72.883 141.862 72.805 146.318 73.122 150.756V150.754C73.124 150.776 73.125 150.798 73.126 150.82C73.126 150.811 73.125 150.802 73.125 150.793C74.007 162.24 76.756 174.296 84.041 183.436C84.028 183.421 84.016 183.407 84.003 183.392C84.248 183.688 84.779 184.065 84.401 184.465C84.232 184.637 83.937 184.643 83.768 184.468Z" fill="#191919"/>
<path d="M92.219 194.537C91.819 194.347 92.144 193.934 92.23 193.646C92.229 193.648 92.2279 193.651 92.2269 193.653C93.2639 189.822 90.6279 185.051 86.5769 184.43C86.5809 184.431 86.5859 184.432 86.5899 184.432C86.5749 184.429 86.559 184.426 86.544 184.423C86.551 184.424 86.558 184.426 86.565 184.428C86.35 184.393 86.132 184.367 85.914 184.357H85.916C85.711 184.354 85.508 184.354 85.303 184.363C85.317 184.362 85.331 184.361 85.346 184.36C82.892 184.317 86.434 182.667 89.462 184.744C89.476 184.753 89.489 184.762 89.502 184.771C92.151 186.574 93.575 190.144 93.023 193.283C92.855 193.687 92.827 194.662 92.219 194.537Z" fill="#191919"/>
<path d="M99.7579 181.837C99.7679 181.622 99.7779 181.407 99.7929 181.192C99.7929 181.195 99.7929 181.199 99.7929 181.202C100.313 168.08 107.617 150.638 120.174 144.972C121.467 144.455 122.8 144.023 124.192 143.886C124.415 143.859 124.626 144.013 124.657 144.239C124.66 144.959 123.637 144.672 123.17 144.864C123.183 144.861 123.196 144.859 123.209 144.856C123.191 144.859 123.174 144.863 123.156 144.867C123.158 144.867 123.16 144.866 123.162 144.866C118.596 145.925 114.882 149.111 111.905 152.6C111.909 152.596 111.912 152.592 111.916 152.588C108.103 157.132 105.437 162.521 103.274 168.014C103.282 167.993 103.289 167.971 103.296 167.95C102.231 170.876 101.478 173.909 101.086 176.999C100.863 178.624 100.638 180.252 100.512 181.888C100.467 182.338 99.7399 182.295 99.7579 181.837Z" fill="#191919"/>
<path d="M96.01 189.277C95.958 183.034 105.863 182.643 110.42 183.682C111.92 184.005 117.455 186.331 117.132 187.986C116.339 188.628 115.566 187.116 114.825 186.845C111.84 184.821 108.194 184.132 104.636 184.383C104.66 184.381 104.685 184.38 104.71 184.378C101.603 184.548 97.534 185.256 96.509 188.684C96.512 188.671 96.514 188.657 96.517 188.644C96.499 188.954 96.466 189.501 96.01 189.277Z" fill="#191919"/>
<path d="M50.585 187.73C51.475 185.023 54.796 183.826 57.391 183.4C58.201 183.415 61.627 183.005 61.614 184.039C61.562 184.42 61.173 184.485 60.856 184.427C60.87 184.428 60.883 184.429 60.897 184.43C60.848 184.427 60.799 184.423 60.751 184.42C60.754 184.42 60.757 184.42 60.76 184.42C60.738 184.419 60.716 184.417 60.695 184.416C60.709 184.417 60.723 184.418 60.737 184.419C59.39 184.357 58.025 184.332 56.703 184.63C56.727 184.626 56.751 184.621 56.775 184.616C54.878 185.096 52.831 185.819 51.599 187.423C51.394 187.665 51.485 188.115 51.077 188.158C50.822 188.196 50.59 187.99 50.585 187.73Z" fill="#191919"/>
<path d="M101.591 192.606C100.776 187.695 104.021 188.772 102.629 189.85C102.256 190.672 102.252 191.623 102.303 192.509C102.365 192.969 101.653 193.068 101.591 192.606Z" fill="#191919"/>
<path d="M109.688 192.51C109.691 192.274 109.689 192.037 109.673 191.801C109.675 191.819 109.675 191.837 109.677 191.856C109.671 191.767 109.665 191.677 109.658 191.588C109.66 191.607 109.661 191.624 109.662 191.643C109.628 191.152 109.548 190.666 109.467 190.181C109.47 190.198 109.474 190.215 109.478 190.231C109.451 189.895 109.094 189.469 109.484 189.226C109.662 189.122 109.909 189.181 110.011 189.364C110.223 190.033 110.998 192.718 110.09 192.912C109.873 192.913 109.684 192.729 109.688 192.51Z" fill="#191919"/>
<path d="M114.974 191.115C115.05 190.692 114.636 189.937 115.216 189.786C115.422 189.758 115.588 189.903 115.627 190.099C115.649 190.536 116.028 191.422 115.361 191.503C115.146 191.503 114.981 191.327 114.974 191.115Z" fill="#191919"/>
<path d="M166.264 111.241C163.936 109.797 164.989 106.155 167.694 106.079C162.763 104.506 164.784 98.548 169.455 98.616C162.963 97.685 165.369 90.575 170.924 90.839C176.498 90.379 177.246 98.046 171.632 98.62C171.705 98.672 171.759 98.749 171.784 98.836C176.766 100.269 174.643 106.545 170.009 106.435C175.486 108.481 170.242 114.427 166.264 111.241Z" fill="#EDD4BE"/>
<path d="M165.184 109.992C164.496 108.333 165.6 106.138 167.694 106.079C162.763 104.506 164.784 98.548 169.455 98.616C162.963 97.685 165.369 90.575 170.924 90.839" stroke="black" stroke-width="0.7313" stroke-miterlimit="10" stroke-linecap="round" stroke-linejoin="round"/>
<path d="M48.504 54.677C48.905 47.362 50.909 40.26 53.109 33.312C54.034 32.17 55.014 36.139 55.481 36.717C57.582 41.061 59.481 45.51 61.149 50.039C61.145 50.026 61.141 50.015 61.136 50.002C61.343 50.589 61.533 51.185 61.732 51.774C61.772 51.892 61.814 52.009 61.854 52.126C61.853 52.123 61.852 52.122 61.852 52.119C62.073 52.773 62.33 53.418 62.528 54.079C57.867 54.827 53.167 55.236 48.455 55.478C48.465 55.211 48.485 54.943 48.504 54.677Z" fill="#FA7930"/>
<path d="M103.306 53.949C104.72 46.761 107.693 40.007 110.837 33.432C111.697 32.669 111.897 34.62 112.132 35.146C113.732 40.425 115.344 45.709 116.471 51.115C116.469 51.102 116.466 51.09 116.464 51.077C116.587 51.687 116.693 52.304 116.808 52.915V52.914C116.831 53.037 116.856 53.159 116.88 53.281C116.879 53.278 116.879 53.277 116.878 53.274C117.006 53.953 117.171 54.627 117.275 55.309C112.555 55.401 107.844 55.153 103.144 54.737C103.192 54.472 103.25 54.21 103.306 53.949Z" fill="#FA7930"/>
<path d="M44.867 113.2C37.085 110.954 48.79 107.753 56.997 109.882C64.778 112.128 53.073 115.329 44.867 113.2Z" fill="#F28888"/>
<path d="M113.111 113.2C105.329 110.954 117.034 107.753 125.241 109.882C133.023 112.128 121.317 115.329 113.111 113.2Z" fill="#F28888"/>
<path d="M81.9589 97.2559C76.9369 107.817 62.4859 113.852 50.9499 103.039C37.7179 88.929 49.6819 70.48 64.3189 70.207C68.8729 70.119 73.6899 71.7969 78.0779 75.9109C84.6019 82.8729 85.0019 90.8889 81.9589 97.2559Z" fill="white"/>
<path d="M81.9589 97.256C76.3229 104.56 65.2259 107.68 56.1379 99.157C45.4309 87.748 53.0959 73.17 64.3189 70.206C68.8729 70.118 73.6899 71.796 78.0779 75.91C84.6019 82.873 85.0019 90.889 81.9589 97.256Z" fill="#2E3440"/>
<path d="M124.806 94.075C119.784 104.636 105.333 110.671 93.797 99.858C80.565 85.748 92.529 67.299 107.166 67.026C111.72 66.938 116.537 68.616 120.925 72.73C127.449 79.692 127.848 87.708 124.806 94.075Z" fill="white"/>
<path d="M124.806 94.0749C119.17 101.379 108.073 104.499 98.9849 95.976C88.2779 84.5669 95.9429 69.9889 107.166 67.0249C111.72 66.9369 116.537 68.6149 120.925 72.7289C127.449 79.6919 127.848 87.7079 124.806 94.0749Z" fill="#2E3440"/>
<path d="M90.838 101.122C89.96 101.464 90.18 104.457 88.038 103.168C86.942 102.726 86.769 100.222 86.431 99.8409C86.093 100.222 85.92 102.726 84.824 103.168C82.682 104.457 82.902 101.465 82.025 101.122C81.628 101.373 82.119 101.974 82.161 102.334C82.468 103.617 83.852 104.563 85.052 103.712C85.741 103.286 86.179 102.592 86.432 101.836C86.685 102.591 87.123 103.285 87.812 103.712C89.012 104.563 90.396 103.616 90.703 102.334C90.744 101.974 91.234 101.372 90.838 101.122Z" fill="#191919"/>
<path d="M86.4309 101.204L88.7199 97.0809L83.7939 97.067L86.4309 101.204Z" fill="#F28888"/>
<path d="M113.072 63.486C111.889 61.213 111.17 59.815 108.477 61.554C108.076 61.701 107.81 62.488 107.377 62.264C107.151 61.193 109.125 60.09 110.081 59.938C112.182 58.85 115.082 63.88 113.072 63.486Z" fill="#191919"/>
<path d="M64.3469 64.259C62.3919 62.603 61.1969 61.581 59.3629 64.21C59.0479 64.497 59.0989 65.327 58.6129 65.283C57.9989 64.377 59.4079 62.609 60.2349 62.106C61.7689 60.305 66.3569 63.863 64.3469 64.259Z" fill="#191919"/>
<path d="M53.715 141.279C53.209 142.496 53.362 143.934 53.809 145.265C54.253 146.606 54.976 147.835 55.529 148.907C55.596 149.04 55.82 148.96 55.787 148.815C55.224 146.373 55.44 143.799 55.513 141.47C55.546 140.631 54.06 140.476 53.715 141.279Z" fill="#D08770"/>
<path d="M58.654 158.104C58.471 159.332 59.044 160.599 59.895 161.598C60.748 162.612 61.849 163.36 62.749 163.994C62.859 164.074 63.022 163.901 62.939 163.796C61.499 162.017 60.91 159.743 60.431 157.779C60.268 157.075 58.789 157.29 58.654 158.104Z" fill="#D08770"/>
<path d="M63.056 143.423C62.537 145.757 64.296 148.175 65.08 150.245C65.128 150.372 65.361 150.322 65.348 150.186C65.132 147.899 65.257 145.456 64.849 143.216C64.701 142.401 63.227 142.654 63.056 143.423Z" fill="#D08770"/>
<path d="M70.2339 169.967C70.0689 170.947 70.6569 171.88 71.4609 172.478C72.2699 173.096 73.2519 173.393 74.0209 173.642C74.1159 173.675 74.2309 173.467 74.1569 173.404C72.8709 172.33 72.3629 170.687 71.9509 169.419C71.8119 168.972 70.3549 169.315 70.2339 169.967Z" fill="#D08770"/>
<path d="M111.878 158.987C110.077 160.597 110.066 163.619 109.475 165.781C109.439 165.913 109.656 166.01 109.727 165.89C110.906 163.886 112.454 161.953 113.451 159.875C113.813 159.119 112.471 158.457 111.878 158.987Z" fill="#D08770"/>
<path d="M111.336 172.725C110.325 173.973 111.518 175.553 111.837 176.815C111.857 176.892 112.094 176.894 112.111 176.815C112.395 175.502 113.045 174.143 113.132 172.832C113.163 172.356 111.669 172.314 111.336 172.725Z" fill="#D08770"/>
<path d="M121.822 157.546C120.362 158.624 120.647 160.821 120.081 162.395C120.048 162.489 120.252 162.612 120.317 162.534C121.41 161.243 122.772 159.905 123.459 158.295C123.708 157.705 122.307 157.18 121.822 157.546Z" fill="#D08770"/>
<path d="M124.907 169.791C123.556 170.741 124.21 172.672 124.125 174.028C124.12 174.111 124.347 174.182 124.387 174.109C125.063 172.879 126.103 171.712 126.59 170.427C126.767 169.96 125.352 169.478 124.907 169.791Z" fill="#D08770"/>
<path d="M124.068 126.147C123.891 127.402 124.133 128.613 124.376 129.921C124.621 131.214 124.854 132.606 124.727 133.836C124.714 133.986 124.944 134.045 124.994 133.898C125.855 131.479 126.488 128.588 125.854 125.883C125.608 124.89 124.167 125.325 124.068 126.147Z" fill="#D08770"/>
<path d="M115.935 122.016C115.773 123.211 116.103 124.359 116.52 125.543C116.938 126.72 117.442 127.937 117.644 129.062C117.67 129.199 117.907 129.193 117.918 129.051C118.11 126.686 118.34 124.069 117.709 121.68C117.472 120.807 116.034 121.231 115.935 122.016Z" fill="#D08770"/>
<path d="M116.547 138.132C116.184 138.908 116.326 139.628 116.58 140.396C116.834 141.156 117.195 141.967 117.287 142.707C117.299 142.797 117.536 142.821 117.56 142.731C117.981 141.249 118.558 139.543 118.334 137.914C118.246 137.317 116.78 137.622 116.547 138.132Z" fill="#D08770"/>
<path d="M98.802 118.116C98.189 120.061 99.831 121.998 100.522 123.68C100.564 123.783 100.797 123.734 100.79 123.622C100.672 121.741 100.899 119.72 100.589 117.884C100.477 117.216 99.004 117.475 98.802 118.116Z" fill="#D08770"/>
<path d="M61.236 123.632C60.224 126.321 61.418 129.724 61.737 132.442C61.756 132.608 61.994 132.611 62.011 132.442C62.295 129.613 62.945 126.686 63.032 123.863C63.063 122.836 61.569 122.746 61.236 123.632Z" fill="#D08770"/>
<path d="M48.531 124.906C47.887 125.554 47.814 126.47 47.987 127.348C48.157 128.233 48.566 129.074 48.801 129.792C48.829 129.881 49.066 129.856 49.074 129.764C49.201 128.204 49.923 126.724 50.272 125.367C50.401 124.88 48.961 124.48 48.531 124.906Z" fill="#D08770"/>
<path d="M39.6589 143.77C39.0169 144.626 38.9499 145.739 39.1249 146.821C39.2979 147.91 39.7049 148.964 39.9409 149.878C39.9689 149.991 40.2059 149.972 40.2139 149.856C40.3409 147.901 41.0579 145.984 41.4119 144.189C41.5429 143.541 40.0879 143.206 39.6589 143.77Z" fill="#D08770"/>
<path d="M42.5479 168.316C42.0939 170.616 44.1129 172.8 45.2349 174.533C45.3029 174.642 45.5219 174.547 45.4859 174.423C44.8819 172.334 44.7769 170.058 44.3289 168.026C44.1689 167.29 42.7009 167.568 42.5479 168.316Z" fill="#D08770"/>
<path d="M20.049 163.742C19.103 162.8 18.033 162.112 16.95 161.198C15.883 160.305 14.845 159.156 14.375 157.879C14.314 157.726 14.081 157.775 14.109 157.945C14.308 159.372 14.812 160.835 15.65 162.152C16.482 163.465 17.681 164.618 19.129 165.297C20.234 165.778 20.687 164.325 20.049 163.742Z" fill="#D08770"/>
<path d="M16.539 150.479C16.33 149.375 15.798 148.495 15.246 147.484C14.699 146.491 14.159 145.357 14.047 144.264C14.031 144.132 13.793 144.116 13.773 144.254C13.583 145.398 13.516 146.631 13.683 147.876C13.848 149.117 14.268 150.367 14.994 151.41C15.556 152.182 16.695 151.192 16.539 150.479Z" fill="#D08770"/>
<path d="M21.901 155.669C21.713 154.811 21.273 154.293 20.749 153.638C20.237 153.005 19.683 152.214 19.546 151.394C19.527 151.296 19.289 151.284 19.272 151.389C19.108 152.259 19.059 153.227 19.243 154.204C19.423 155.176 19.859 156.153 20.577 156.886C21.141 157.433 22.04 156.217 21.901 155.669Z" fill="#D08770"/>
<path d="M28.674 164.896C28.507 164.21 28.106 163.965 27.565 163.729C27.034 163.502 26.371 163.267 25.957 162.874C25.906 162.827 25.699 162.944 25.721 163.013C26.048 164.145 26.54 165.607 27.674 166.389C28.099 166.673 28.788 165.34 28.674 164.896Z" fill="#D08770"/>
<path d="M19.26 142.656C19.628 141.791 19.486 140.947 19.232 140.063C18.977 139.186 18.613 138.265 18.514 137.431C18.501 137.329 18.264 137.309 18.24 137.411C17.832 139.102 17.259 140.995 17.466 142.807C17.545 143.471 19.022 143.225 19.26 142.656Z" fill="#D08770"/>
<path d="M39.0149 124.878C38.3709 125.47 38.2929 126.333 38.4589 127.159C38.6219 127.993 39.0209 128.783 39.2469 129.455C39.2739 129.538 39.5109 129.515 39.5199 129.429C39.6689 127.971 40.4019 126.607 40.7509 125.357C40.8779 124.91 39.4449 124.489 39.0149 124.878Z" fill="#D08770"/>
<path d="M79.286 121.109C78.733 121.548 78.777 122.187 79.058 122.722C79.338 123.269 79.837 123.704 80.139 124.075C80.176 124.122 80.399 124.04 80.397 123.983C80.354 122.999 80.912 122.073 81.067 121.348C81.125 121.095 79.655 120.82 79.286 121.109Z" fill="#D08770"/>
<path d="M44.7699 74.6559C44.0709 75.1259 43.8909 75.9199 43.9429 76.7169C43.9909 77.5199 44.2639 78.3209 44.3749 78.9859C44.3879 79.0679 44.6249 79.0859 44.6479 79.0069C45.0369 77.6679 45.9479 76.4909 46.4329 75.3429C46.6099 74.9309 45.2349 74.3469 44.7699 74.6559Z" fill="#D08770"/>
<path d="M41.37 96.68C40.727 97.433 40.657 98.446 40.831 99.425C41.002 100.411 41.41 101.358 41.645 102.175C41.673 102.276 41.91 102.254 41.918 102.151C42.046 100.394 42.766 98.695 43.119 97.117C43.249 96.548 41.8 96.184 41.37 96.68Z" fill="#D08770"/>
<path d="M134.067 97.05C133.884 98.052 134.158 98.943 134.504 99.902C134.849 100.85 135.258 101.871 135.348 102.816C135.36 102.931 135.597 102.952 135.622 102.835C136.048 100.915 136.429 98.657 135.816 96.614C135.581 95.864 134.177 96.394 134.067 97.05Z" fill="#D08770"/>
<path d="M93.095 109.378C92.933 110.181 93.129 110.734 93.366 111.454C93.6 112.148 93.821 113.013 93.646 113.756C93.628 113.846 93.84 113.953 93.895 113.871C94.366 113.204 94.775 112.399 94.974 111.491C95.176 110.59 95.144 109.581 94.758 108.696C94.442 108.023 93.181 108.86 93.095 109.378Z" fill="#D08770"/>
<path d="M72.236 111.825C71.863 112.309 71.977 112.601 72.232 112.955C72.485 113.297 72.868 113.707 72.987 114.109C73.002 114.157 73.239 114.184 73.26 114.135C73.626 113.363 74.187 112.308 73.963 111.332C73.875 110.97 72.477 111.509 72.236 111.825Z" fill="#D08770"/>
<path d="M83.2549 67.443C83.1159 68.463 83.4409 69.358 83.8499 70.307C84.2579 71.246 84.7449 72.242 84.9199 73.182C84.9419 73.296 85.1799 73.296 85.1939 73.177C85.4449 71.212 85.6759 68.946 84.9849 66.938C84.7229 66.202 83.3369 66.775 83.2549 67.443Z" fill="#D08770"/>
<path d="M87.045 61.6049C86.91 62.4189 87.204 63.0079 87.601 63.6589C87.996 64.2969 88.482 65.006 88.66 65.708C88.683 65.793 88.921 65.7899 88.934 65.6999C89.182 64.2229 89.397 62.3939 88.685 60.8669C88.414 60.3049 87.125 61.0739 87.045 61.6049Z" fill="#D08770"/>
<path d="M79.794 58.4819C79.312 60.3209 81.063 61.9059 81.855 63.3629C81.903 63.4519 82.131 63.3819 82.117 63.2809C81.879 61.5799 81.974 59.7139 81.549 58.0749C81.394 57.4789 79.953 57.8749 79.794 58.4819Z" fill="#D08770"/>
<path d="M143.78 101.595C143.384 102.315 143.608 103.077 144.041 103.715C144.475 104.361 145.107 104.881 145.533 105.362C145.585 105.422 145.796 105.313 145.777 105.238C145.441 103.952 145.673 102.553 145.568 101.402C145.534 100.99 144.046 101.119 143.78 101.595Z" fill="#D08770"/>
<path d="M150.995 103.388C150.719 104.136 151.085 104.826 151.637 105.317C152.192 105.819 152.914 106.123 153.431 106.429C153.494 106.468 153.665 106.302 153.629 106.239C153.003 105.168 152.975 103.853 152.72 102.876C152.632 102.528 151.182 102.892 150.995 103.388Z" fill="#D08770"/>
<path d="M162.923 83.674C182.749 83.674 198.822 67.6014 198.822 47.775C198.822 27.9485 182.749 11.876 162.923 11.876C143.096 11.876 127.024 27.9485 127.024 47.775C127.024 67.6014 143.096 83.674 162.923 83.674Z" fill="#2E3440"/>
<path d="M175.198 78.201L171.188 78C171.092 80.32 170.07 82.564 168.465 84.237C167.378 85.371 168.339 87.286 169.882 86.989C171.018 86.77 172.1 86.283 172.99 85.541C175.069 83.81 175.976 80.793 175.198 78.201Z" fill="#191919"/>
<path d="M145.671 45.5375C144.883 45.5375 144.154 45.4094 143.484 45.1533C142.824 44.8873 142.248 44.5178 141.755 44.0449C141.272 43.572 140.893 43.0153 140.617 42.3749C140.351 41.7345 140.218 41.0349 140.218 40.2763C140.218 39.5177 140.351 38.8181 140.617 38.1777C140.893 37.5373 141.277 36.9807 141.77 36.5077C142.262 36.0348 142.839 35.6703 143.499 35.4141C144.169 35.1481 144.898 35.0151 145.686 35.0151C146.474 35.0151 147.194 35.1382 147.844 35.3846C148.504 35.6309 149.066 36.0053 149.529 36.5077L148.849 37.2023C148.415 36.7688 147.937 36.4585 147.415 36.2713C146.893 36.0841 146.332 35.9905 145.731 35.9905C145.09 35.9905 144.499 36.0989 143.957 36.3156C143.425 36.5225 142.957 36.823 142.553 37.2171C142.159 37.6014 141.849 38.0546 141.622 38.5768C141.405 39.0891 141.297 39.6556 141.297 40.2763C141.297 40.8872 141.405 41.4537 141.622 41.9759C141.849 42.498 142.159 42.9562 142.553 43.3503C142.957 43.7345 143.425 44.035 143.957 44.2518C144.499 44.4587 145.085 44.5621 145.716 44.5621C146.307 44.5621 146.864 44.4735 147.386 44.2961C147.918 44.1188 148.405 43.8183 148.849 43.3946L149.47 44.2222C148.977 44.6557 148.401 44.9858 147.74 45.2124C147.08 45.4291 146.391 45.5375 145.671 45.5375ZM148.42 44.0892V40.2763H149.47V44.2222L148.42 44.0892ZM152.343 45.4489V37.69H153.348V39.8034L153.245 39.4339C153.461 38.8428 153.826 38.3945 154.338 38.0891C154.851 37.7738 155.486 37.6161 156.245 37.6161V38.6359C156.205 38.6359 156.166 38.6359 156.126 38.6359C156.087 38.626 156.048 38.6211 156.008 38.6211C155.19 38.6211 154.55 38.8723 154.087 39.3748C153.624 39.8674 153.392 40.5719 153.392 41.4882V45.4489H152.343ZM161.383 45.5227C160.575 45.5227 159.866 45.3553 159.255 45.0203C158.644 44.6754 158.166 44.2074 157.821 43.6163C157.476 43.0153 157.304 42.3305 157.304 41.5621C157.304 40.7936 157.466 40.1137 157.792 39.5226C158.127 38.9314 158.58 38.4684 159.151 38.1334C159.733 37.7886 160.383 37.6161 161.102 37.6161C161.831 37.6161 162.476 37.7836 163.038 38.1186C163.609 38.4437 164.058 38.9068 164.383 39.5078C164.708 40.099 164.871 40.7837 164.871 41.5621C164.871 41.6113 164.866 41.6655 164.856 41.7246C164.856 41.7739 164.856 41.8281 164.856 41.8872H158.102V41.1039H164.294L163.88 41.4143C163.88 40.8527 163.757 40.3551 163.511 39.9216C163.274 39.4783 162.949 39.1334 162.536 38.8871C162.122 38.6408 161.644 38.5176 161.102 38.5176C160.57 38.5176 160.092 38.6408 159.668 38.8871C159.245 39.1334 158.915 39.4783 158.678 39.9216C158.442 40.365 158.324 40.8724 158.324 41.4438V41.6064C158.324 42.1975 158.452 42.7197 158.708 43.1729C158.974 43.6163 159.338 43.9661 159.801 44.2222C160.274 44.4685 160.811 44.5917 161.412 44.5917C161.885 44.5917 162.324 44.5079 162.728 44.3405C163.141 44.173 163.496 43.9168 163.792 43.572L164.383 44.2518C164.038 44.6656 163.605 44.9809 163.082 45.1976C162.57 45.4144 162.003 45.5227 161.383 45.5227ZM171.652 45.4489V43.7345L171.608 43.4537V40.5867C171.608 39.9265 171.42 39.4191 171.046 39.0645C170.682 38.7098 170.135 38.5324 169.406 38.5324C168.903 38.5324 168.425 38.6162 167.972 38.7837C167.519 38.9512 167.135 39.1728 166.819 39.4487L166.346 38.6654C166.741 38.3304 167.213 38.0743 167.765 37.8969C168.317 37.7097 168.898 37.6161 169.509 37.6161C170.514 37.6161 171.287 37.8674 171.829 38.3699C172.381 38.8625 172.657 39.6162 172.657 40.631V45.4489H171.652ZM168.977 45.5227C168.396 45.5227 167.888 45.4291 167.455 45.242C167.031 45.0449 166.706 44.7789 166.479 44.4439C166.253 44.0991 166.14 43.705 166.14 43.2616C166.14 42.8577 166.233 42.4931 166.42 42.168C166.617 41.833 166.933 41.567 167.366 41.3699C167.81 41.163 168.401 41.0596 169.14 41.0596H171.815V41.8428H169.169C168.42 41.8428 167.898 41.9759 167.603 42.2419C167.317 42.5079 167.174 42.8379 167.174 43.232C167.174 43.6754 167.346 44.0301 167.691 44.2961C168.036 44.5621 168.519 44.6951 169.14 44.6951C169.731 44.6951 170.238 44.5621 170.662 44.2961C171.095 44.0202 171.411 43.6261 171.608 43.1138L171.844 43.838C171.647 44.3503 171.302 44.7592 170.81 45.0646C170.327 45.37 169.716 45.5227 168.977 45.5227ZM177.96 45.5227C177.231 45.5227 176.67 45.3257 176.275 44.9316C175.881 44.5375 175.684 43.9808 175.684 43.2616V35.9757H176.734V43.2025C176.734 43.6557 176.847 44.0055 177.073 44.2518C177.31 44.4981 177.645 44.6212 178.078 44.6212C178.542 44.6212 178.926 44.4882 179.231 44.2222L179.601 44.9759C179.394 45.1631 179.143 45.3011 178.847 45.3897C178.561 45.4784 178.266 45.5227 177.96 45.5227ZM174.295 38.562V37.69H179.098V38.562H174.295Z" fill="white"/>
<path d="M155.248 63.2714C154.666 63.2714 154.12 63.1433 153.607 62.8872C153.105 62.631 152.701 62.2665 152.395 61.7935L153.031 61.0546C153.317 61.4684 153.647 61.7837 154.021 62.0004C154.395 62.2172 154.809 62.3256 155.262 62.3256C156.543 62.3256 157.184 61.5669 157.184 60.0497V53.7835H153.4V52.8376H158.262V60.0053C158.262 61.0989 158.006 61.9167 157.494 62.4586C156.992 63.0005 156.243 63.2714 155.248 63.2714ZM164.484 63.2566C163.735 63.2566 163.06 63.0891 162.459 62.7542C161.868 62.4093 161.4 61.9413 161.055 61.3502C160.71 60.7492 160.538 60.0644 160.538 59.2959C160.538 58.5176 160.71 57.8328 161.055 57.2417C161.4 56.6506 161.868 56.1875 162.459 55.8525C163.05 55.5175 163.725 55.35 164.484 55.35C165.252 55.35 165.932 55.5175 166.523 55.8525C167.124 56.1875 167.592 56.6506 167.927 57.2417C168.272 57.8328 168.445 58.5176 168.445 59.2959C168.445 60.0644 168.272 60.7492 167.927 61.3502C167.592 61.9413 167.124 62.4093 166.523 62.7542C165.922 63.0891 165.243 63.2566 164.484 63.2566ZM164.484 62.3256C165.046 62.3256 165.543 62.2024 165.977 61.9561C166.41 61.6999 166.75 61.3453 166.996 60.892C167.253 60.429 167.381 59.8969 167.381 59.2959C167.381 58.6851 167.253 58.1531 166.996 57.6998C166.75 57.2466 166.41 56.8969 165.977 56.6506C165.543 56.3944 165.051 56.2663 164.499 56.2663C163.947 56.2663 163.454 56.3944 163.021 56.6506C162.587 56.8969 162.243 57.2466 161.986 57.6998C161.73 58.1531 161.602 58.6851 161.602 59.2959C161.602 59.8969 161.73 60.429 161.986 60.892C162.243 61.3453 162.587 61.6999 163.021 61.9561C163.454 62.2024 163.942 62.3256 164.484 62.3256ZM174.592 63.2566C173.912 63.2566 173.301 63.1039 172.759 62.7985C172.217 62.4832 171.789 62.03 171.474 61.4389C171.158 60.8477 171.001 60.1334 171.001 59.2959C171.001 58.4486 171.158 57.7343 171.474 57.153C171.799 56.5619 172.232 56.1136 172.774 55.8082C173.316 55.5027 173.922 55.35 174.592 55.35C175.331 55.35 175.991 55.5175 176.572 55.8525C177.163 56.1776 177.626 56.6358 177.961 57.2269C178.296 57.8181 178.464 58.5077 178.464 59.2959C178.464 60.0743 178.296 60.764 177.961 61.365C177.626 61.9561 177.163 62.4192 176.572 62.7542C175.991 63.0891 175.331 63.2566 174.592 63.2566ZM170.587 63.1827V52.2169H171.636V57.7146L171.488 59.2812L171.592 60.8477V63.1827H170.587ZM174.518 62.3256C175.07 62.3256 175.562 62.2024 175.996 61.9561C176.429 61.6999 176.774 61.3453 177.03 60.892C177.287 60.429 177.415 59.8969 177.415 59.2959C177.415 58.6851 177.287 58.1531 177.03 57.6998C176.774 57.2466 176.429 56.8969 175.996 56.6506C175.562 56.3944 175.07 56.2663 174.518 56.2663C173.966 56.2663 173.469 56.3944 173.025 56.6506C172.592 56.8969 172.247 57.2466 171.991 57.6998C171.745 58.1531 171.621 58.6851 171.621 59.2959C171.621 59.8969 171.745 60.429 171.991 60.892C172.247 61.3453 172.592 61.6999 173.025 61.9561C173.469 62.2024 173.966 62.3256 174.518 62.3256Z" fill="white"/>
</svg>
