<svg width="351" height="129" viewBox="0 0 351 129" fill="none" xmlns="http://www.w3.org/2000/svg">
<path d="M39.04 97.5457C29.3759 106.289 10.7654 109.94 3.23643 111.103C1.48107 111.375 0.273757 113.062 0.640334 114.8L2.88591 125.446C3.26899 127.262 4.85449 128.599 6.7062 128.471C40.4732 126.13 80.3812 75.3993 96.5397 49.5457C141.34 -7.65433 196.206 30.379 218.04 56.5457C253.64 96.405 300.54 82.4871 319.54 70.5457C327.04 73.0457 346.04 58.5457 349.04 55.5457C352.04 52.5457 348.54 51.0457 347.54 53.0457C346.54 55.0457 340.04 56.5457 339.54 55.5457C339.14 54.7457 344.706 51.2123 347.54 49.5457C352.74 43.9457 349.706 42.5457 347.54 42.5457C338.04 50.5457 335.04 50.5457 335.04 49.5457C335.04 48.7457 342.373 41.879 346.04 38.5457C347.64 33.3457 344.04 33.7123 342.04 34.5457C333.24 43.7457 330.04 44.7123 329.54 44.0457C331.706 42.2123 336.54 37.5457 338.54 33.5457C340.54 29.5457 337.04 29.5457 335.04 30.0457C321.04 43.5457 319.795 42.069 319.54 42.5457C325.14 32.1457 323.206 32.2123 321.54 33.5457C311.94 39.5457 308.484 54.0502 307.955 60.5525C307.955 60.5525 295.5 65.7902 287.04 67.0457C278.928 68.2495 274.045 68.8247 266.04 67.0457C257.089 65.0566 252.94 61.1998 245.04 56.5457C236.219 51.349 231.809 47.5811 223.54 41.5457C206.371 29.0152 200.879 15.1727 181.04 7.54567C164.354 1.13112 153.099 -0.803796 135.54 2.54567C113.194 6.80815 104.946 18.8239 88.04 34.0457C85.0404 36.7466 49.5404 88.0456 39.04 97.5457Z" fill="#EBCB8B" stroke="#EBCB8B"/>
</svg>
